<svg width="171" height="128" viewBox="0 0 171 128" fill="none" xmlns="http://www.w3.org/2000/svg">
<path d="M167.433 42.2667C168.733 41.2333 170.667 42.2 170.667 43.8333V112C170.667 120.833 163.5 128 154.667 128H16C7.16667 128 0 120.833 0 112V43.8667C0 42.2 1.9 41.2667 3.23333 42.3C10.7 48.1 20.6 55.4667 54.6 80.1667C61.6333 85.3 73.5 96.1 85.3333 96.0333C97.2333 96.1333 109.333 85.1 116.1 80.1667C150.1 55.4667 159.967 48.0667 167.433 42.2667ZM85.3333 85.3333C93.0667 85.4667 104.2 75.6 109.8 71.5333C154.033 39.4333 157.4 36.6333 167.6 28.6333C169.533 27.1333 170.667 24.8 170.667 22.3333V16C170.667 7.16667 163.5 0 154.667 0H16C7.16667 0 0 7.16667 0 16V22.3333C0 24.8 1.13333 27.1 3.06667 28.6333C13.2667 36.6 16.6333 39.4333 60.8667 71.5333C66.4667 75.6 77.6 85.4667 85.3333 85.3333Z" fill="#B2B2B2"/>
</svg>
