<svg width="30" height="30" viewBox="0 0 30 30" fill="none" xmlns="http://www.w3.org/2000/svg">
<path d="M15 30C23.1912 30 30.0001 23.1912 30.0001 15C30.0001 6.79412 23.1765 0 14.9853 0C6.77937 0 0 6.79412 0 15C0 23.1912 6.79412 30 15 30ZM14.9853 15.7794C14.7353 15.7794 14.4559 15.6912 14.1618 15.3971L7.67644 8.91177C7.85294 8.76469 8.2941 8.61762 8.91177 8.61762H21.0441C21.6765 8.61762 22.1029 8.76469 22.2794 8.91177L15.7941 15.3971C15.5147 15.6765 15.2353 15.7794 14.9853 15.7794ZM12.0735 15L6.97056 20.1029C6.86765 19.9265 6.82354 19.5588 6.82354 19.0441V10.897C6.82354 10.3823 6.86765 10.0294 6.95587 9.88237L12.0735 15ZM17.8383 15L22.9706 9.88237C23.0441 10.0294 23.0882 10.3823 23.0882 10.897V19.0441C23.0882 19.5588 23.0441 19.9265 22.9412 20.1029L17.8383 15ZM14.9706 16.9412C15.5 16.9412 15.9117 16.75 16.4853 16.2206L16.9559 15.7794L22.2353 21.0588C22.0588 21.2206 21.647 21.3235 21.0294 21.3235H8.91177C8.2941 21.3235 7.88237 21.2206 7.70587 21.0588L12.9853 15.7794L13.4559 16.2206C14.0294 16.75 14.4412 16.9412 14.9706 16.9412Z" fill="white"/>
</svg>
