<svg width="30" height="30" viewBox="0 0 30 30" fill="none" xmlns="http://www.w3.org/2000/svg">
<path d="M15 1.25C11.3918 1.21334 7.91672 2.61076 5.33842 5.13516C2.76011 7.65955 1.28958 11.1044 1.25 14.7125C1.2639 17.564 2.18118 20.3377 3.87008 22.6352C5.55898 24.9327 7.93259 26.6359 10.65 27.5C11.3375 27.625 11.5875 27.2125 11.5875 26.85C11.5875 26.4875 11.5875 25.6875 11.5875 24.5625C7.7625 25.375 6.95 22.7625 6.95 22.7625C6.69537 21.9424 6.15404 21.2413 5.425 20.7875C4.175 19.9625 5.525 19.975 5.525 19.975C5.95706 20.0328 6.37044 20.1876 6.73414 20.4279C7.09783 20.6682 7.4024 20.9877 7.625 21.3625C8.01291 22.0352 8.64942 22.5286 9.39751 22.7367C10.1456 22.9447 10.9455 22.8508 11.625 22.475C11.6949 21.7905 12.0049 21.1528 12.5 20.675C9.45 20.3375 6.25 19.1875 6.25 14.025C6.22273 12.6784 6.7203 11.3739 7.6375 10.3875C7.21978 9.23134 7.26911 7.95789 7.775 6.8375C7.775 6.8375 8.9375 6.475 11.525 8.2125C13.7774 7.6123 16.1476 7.6123 18.4 8.2125C21.025 6.475 22.15 6.8375 22.15 6.8375C22.6559 7.95789 22.7052 9.23134 22.2875 10.3875C23.226 11.3558 23.7506 12.6515 23.75 14C23.75 19.175 20.525 20.3125 17.5 20.65C17.8312 20.9716 18.0871 21.3626 18.2492 21.7948C18.4113 22.2271 18.4756 22.6899 18.4375 23.15V26.8375C18.4375 26.8375 18.6875 27.625 19.375 27.4875C22.0847 26.618 24.4503 24.9145 26.134 22.6202C27.8177 20.3259 28.7333 17.5582 28.75 14.7125C28.7104 11.1044 27.2399 7.65955 24.6616 5.13516C22.0833 2.61076 18.6082 1.21334 15 1.25Z" fill="white"/>
</svg>
