<svg width="150" height="150" viewBox="0 0 150 150" fill="none" xmlns="http://www.w3.org/2000/svg">
<path d="M75 6.24999C56.9592 6.06666 39.5836 13.0538 26.6921 25.6758C13.8006 38.2977 6.44789 55.5218 6.25001 73.5625C6.31953 87.8198 10.9059 101.688 19.3504 113.176C27.7949 124.664 39.663 133.179 53.25 137.5C56.6875 138.125 57.9375 136.062 57.9375 134.25C57.9375 132.437 57.9375 128.437 57.9375 122.812C38.8125 126.875 34.75 113.812 34.75 113.812C33.4769 109.712 30.7702 106.207 27.125 103.937C20.875 99.8125 27.625 99.875 27.625 99.875C29.7853 100.164 31.8522 100.938 33.6707 102.139C35.4892 103.341 37.012 104.939 38.125 106.812C40.0646 110.176 43.2471 112.643 46.9876 113.683C50.7281 114.724 54.7275 114.254 58.125 112.375C58.4744 108.952 60.0243 105.764 62.5 103.375C47.25 101.687 31.25 95.9375 31.25 70.125C31.1136 63.3917 33.6015 56.8694 38.1875 51.9375C36.0989 46.1567 36.3455 39.7894 38.875 34.1875C38.875 34.1875 44.6875 32.375 57.625 41.0625C68.8869 38.0615 80.7382 38.0615 92 41.0625C105.125 32.375 110.75 34.1875 110.75 34.1875C113.279 39.7894 113.526 46.1567 111.438 51.9375C116.13 56.779 118.753 63.2576 118.75 70C118.75 95.875 102.625 101.562 87.5 103.25C89.1562 104.858 90.4355 106.813 91.246 108.974C92.0565 111.135 92.378 113.45 92.1875 115.75V134.187C92.1875 134.187 93.4375 138.125 96.875 137.437C110.423 133.09 122.252 124.572 130.67 113.101C139.088 101.629 143.666 87.7911 143.75 73.5625C143.552 55.5218 136.199 38.2977 123.308 25.6758C110.416 13.0538 93.0409 6.06666 75 6.24999Z" fill="#B2B2B2"/>
</svg>
